<?xml version="1.0" encoding="UTF-8" standalone="no"?>
<!-- Created with Inkscape (http://www.inkscape.org/) -->

<svg
   width="64"
   height="64"
   viewBox="0 0 16.933333 16.933334"
   version="1.1"
   id="svg5"
   inkscape:version="1.1.2 (0a00cf5339, 2022-02-04, custom)"
   sodipodi:docname="winecfg.svg"
   xmlns:inkscape="http://www.inkscape.org/namespaces/inkscape"
   xmlns:sodipodi="http://sodipodi.sourceforge.net/DTD/sodipodi-0.dtd"
   xmlns:xlink="http://www.w3.org/1999/xlink"
   xmlns="http://www.w3.org/2000/svg"
   xmlns:svg="http://www.w3.org/2000/svg">
  <sodipodi:namedview
     id="namedview7"
     pagecolor="#ffffff"
     bordercolor="#666666"
     borderopacity="1.0"
     inkscape:pageshadow="2"
     inkscape:pageopacity="0.0"
     inkscape:pagecheckerboard="0"
     inkscape:document-units="px"
     showgrid="false"
     units="px"
     inkscape:zoom="12.25"
     inkscape:cx="31.959184"
     inkscape:cy="32"
     inkscape:window-width="1920"
     inkscape:window-height="1011"
     inkscape:window-x="0"
     inkscape:window-y="0"
     inkscape:window-maximized="1"
     inkscape:current-layer="svg5" />
  <defs
     id="defs2">
    <linearGradient
       inkscape:collect="always"
       id="linearGradient8250">
      <stop
         style="stop-color:#0568ba;stop-opacity:1;"
         offset="0"
         id="stop8246" />
      <stop
         style="stop-color:#0568ba;stop-opacity:1"
         offset="0.23999999"
         id="stop9054" />
      <stop
         style="stop-color:#0f4c8a;stop-opacity:1"
         offset="0.80000001"
         id="stop8830" />
      <stop
         style="stop-color:#0f4c8f;stop-opacity:1"
         offset="1"
         id="stop8248" />
    </linearGradient>
    <linearGradient
       inkscape:collect="always"
       id="linearGradient7024">
      <stop
         style="stop-color:#ffffff;stop-opacity:1;"
         offset="0"
         id="stop7020" />
      <stop
         style="stop-color:#f0f0f0;stop-opacity:1"
         offset="0.25"
         id="stop7732" />
      <stop
         style="stop-color:#cccccc;stop-opacity:1"
         offset="1"
         id="stop7022" />
    </linearGradient>
    <linearGradient
       inkscape:collect="always"
       id="linearGradient6060">
      <stop
         style="stop-color:#8a8f97;stop-opacity:1;"
         offset="0"
         id="stop6056" />
      <stop
         style="stop-color:#8a8f97;stop-opacity:1"
         offset="0.14573747"
         id="stop6576" />
      <stop
         style="stop-color:#616e7a;stop-opacity:1"
         offset="0.89999998"
         id="stop6770" />
      <stop
         style="stop-color:#616e7a;stop-opacity:1"
         offset="1"
         id="stop6058" />
    </linearGradient>
    <linearGradient
       inkscape:collect="always"
       xlink:href="#linearGradient6060"
       id="linearGradient6062"
       x1="1.0583334"
       y1="1.0583338"
       x2="15.345835"
       y2="13.229167"
       gradientUnits="userSpaceOnUse"
       gradientTransform="scale(3.7795278)" />
    <linearGradient
       inkscape:collect="always"
       xlink:href="#linearGradient7024"
       id="linearGradient7026"
       x1="14.634075"
       y1="13.653037"
       x2="4.0507412"
       y2="3.0697033"
       gradientUnits="userSpaceOnUse"
       gradientTransform="translate(-0.87574188,0.10530406)" />
    <linearGradient
       inkscape:collect="always"
       xlink:href="#linearGradient8250"
       id="linearGradient8252"
       x1="5.458415"
       y1="4.8895097"
       x2="12.337581"
       y2="11.768677"
       gradientUnits="userSpaceOnUse"
       gradientTransform="translate(-0.69591477,-0.1270099)" />
    <linearGradient
       inkscape:collect="always"
       xlink:href="#linearGradient101101"
       id="linearGradient264652"
       x1="40"
       y1="40"
       x2="54.999992"
       y2="55.000004"
       gradientUnits="userSpaceOnUse"
       gradientTransform="matrix(0.26458334,0,0,0.26458334,-1.8520809,-1.8520856)" />
    <linearGradient
       inkscape:collect="always"
       id="linearGradient101101">
      <stop
         style="stop-color:#67cefc;stop-opacity:1"
         offset="0"
         id="stop101097" />
      <stop
         style="stop-color:#3baaeb;stop-opacity:1"
         offset="1"
         id="stop101099" />
    </linearGradient>
    <linearGradient
       inkscape:collect="always"
       xlink:href="#linearGradient37840"
       id="linearGradient265010"
       x1="56"
       y1="55.000004"
       x2="71"
       y2="40.000004"
       gradientUnits="userSpaceOnUse"
       gradientTransform="matrix(0.26458334,0,0,0.26458334,-1.8520809,-1.8520856)" />
    <linearGradient
       inkscape:collect="always"
       id="linearGradient37840">
      <stop
         style="stop-color:#2a9ce4;stop-opacity:1"
         offset="0"
         id="stop37836" />
      <stop
         style="stop-color:#2f9ee5;stop-opacity:1"
         offset="1"
         id="stop37838" />
    </linearGradient>
    <linearGradient
       inkscape:collect="always"
       xlink:href="#linearGradient50431"
       id="linearGradient265530"
       x1="40.000004"
       y1="71.000023"
       x2="55.000004"
       y2="56.000011"
       gradientUnits="userSpaceOnUse"
       gradientTransform="matrix(0.26458334,0,0,0.26458334,-1.8520809,-1.8520856)" />
    <linearGradient
       inkscape:collect="always"
       id="linearGradient50431">
      <stop
         style="stop-color:#188cdd;stop-opacity:1"
         offset="0"
         id="stop50427" />
      <stop
         style="stop-color:#178bdc;stop-opacity:1"
         offset="1"
         id="stop50429" />
    </linearGradient>
    <linearGradient
       inkscape:collect="always"
       xlink:href="#linearGradient249224"
       id="linearGradient265666"
       x1="56"
       y1="56"
       x2="71"
       y2="71"
       gradientUnits="userSpaceOnUse"
       gradientTransform="matrix(0.26458334,0,0,0.26458334,-1.8520809,-1.8520856)" />
    <linearGradient
       inkscape:collect="always"
       id="linearGradient249224">
      <stop
         style="stop-color:#0d83da;stop-opacity:1"
         offset="0"
         id="stop249220" />
      <stop
         style="stop-color:#057bd3;stop-opacity:1"
         offset="1"
         id="stop249222" />
    </linearGradient>
  </defs>
  <circle
     style="fill:url(#linearGradient7026);fill-opacity:1;stroke-width:0.264583"
     id="path6952"
     cx="8.4666662"
     cy="8.4666662"
     r="4.7624998" />
  <path
     id="path5884"
     style="fill:url(#linearGradient6062);fill-opacity:1;stroke-width:0.999999"
     d="M 22.054688 1.5878906 A 32.000002 32.000002 0 0 0 10.685547 8.1484375 A 12 12 0 0 1 10.349609 19.5 A 12 12 0 0 1 0.76953125 25.392578 A 32.000002 32.000002 0 0 0 0 32 A 32.000002 32.000002 0 0 0 0.78125 38.609375 A 12 12 0 0 1 10.349609 44.5 A 12 12 0 0 1 10.708984 55.810547 A 32.000002 32.000002 0 0 0 22.021484 62.34375 A 12 12 0 0 1 32 57 A 12 12 0 0 1 41.984375 62.341797 A 32.000002 32.000002 0 0 0 53.347656 55.767578 A 12 12 0 0 1 53.650391 44.5 A 12 12 0 0 1 63.21875 38.607422 A 32.000002 32.000002 0 0 0 64 32 A 32.000002 32.000002 0 0 0 63.230469 25.392578 A 12 12 0 0 1 53.650391 19.5 A 12 12 0 0 1 53.365234 8.1875 A 32.000002 32.000002 0 0 0 41.945312 1.5878906 A 12 12 0 0 1 32 7 A 12 12 0 0 1 22.054688 1.5878906 z M 32 16 A 16.000001 16.000001 0 0 1 48 32 A 16.000001 16.000001 0 0 1 32 48 A 16.000001 16.000001 0 0 1 16 32 A 16.000001 16.000001 0 0 1 32 16 z "
     transform="scale(0.26458334)" />
  <circle
     style="fill:url(#linearGradient8252);fill-opacity:1;stroke-width:0.264583"
     id="path8010"
     cx="8.4666662"
     cy="8.4666662"
     r="3.175" />
  <path
     id="rect264457"
     style="fill:url(#linearGradient264652);fill-opacity:1;stroke-width:0.297656;stroke-linejoin:round"
     d="m 9.2604192,8.7312501 c -0.2931591,0 -0.5291671,0.2389554 -0.5291671,0.529167 V 12.699998 H 12.7 V 8.7312531 Z"
     sodipodi:nodetypes="cscccc" />
  <path
     id="rect264640"
     style="fill:url(#linearGradient265010);fill-opacity:1;stroke-width:0.297656;stroke-linejoin:round"
     d="m 12.964586,8.7312501 v 3.9687479 h 3.968748 V 9.2604171 c 0,-0.293158 -0.236009,-0.529167 -0.529167,-0.529167 z"
     sodipodi:nodetypes="cccssc" />
  <path
     id="rect264642"
     style="fill:url(#linearGradient265530);fill-opacity:1;stroke-width:0.297656;stroke-linejoin:round"
     d="m 8.7312521,12.964582 v 3.439587 c 0,0.293158 0.236008,0.529166 0.5291671,0.529166 h 3.4395838 v -3.96875 z"
     sodipodi:nodetypes="cssccc" />
  <path
     id="rect264644"
     style="fill:url(#linearGradient265666);fill-opacity:1;stroke-width:0.297656;stroke-linejoin:round"
     d="m 12.964586,12.964582 v 3.96875 h 3.439584 c 0.293158,0 0.529167,-0.254644 0.529167,-0.529166 v -3.439587 z"
     sodipodi:nodetypes="ccsscc" />
</svg>
